<?xml version="1.0" encoding="iso-8859-1"?>
<!-- Generator: Adobe Illustrator 19.0.0, SVG Export Plug-In . SVG Version: 6.00 Build 0)  -->
<svg version="1.1" id="Capa_1" xmlns="http://www.w3.org/2000/svg" xmlns:xlink="http://www.w3.org/1999/xlink" x="0px" y="0px"
	 viewBox="0 0 512 512" style="enable-background:new 0 0 512 512;" xml:space="preserve">
<polygon style="fill:#FFDA2D;" points="316.481,428.748 330.758,512 256,472.69 181.242,512 195.519,428.748 135.029,369.788 
	218.621,357.642 256,281.903 293.379,357.642 376.971,369.788 "/>
<polygon style="fill:#FDBF00;" points="376.971,369.788 316.481,428.748 330.758,512 256,472.69 256,281.903 293.379,357.642 "/>
<polygon style="fill:#FF623F;" points="180.403,0 102.443,245.915 266.965,245.915 270.322,235.208 256.003,230.717 
	256.003,230.717 319.635,30.015 324.398,30.015 324.398,21.595 336.8,25.536 344.914,0 "/>
<polygon style="fill:#E70020;" points="331.586,0 167.103,0 245.075,245.915 409.557,245.915 "/>
<polygon style="fill:#FF9800;" points="288.326,274.139 288.326,304.154 223.674,304.154 223.674,274.139 240.992,274.139 
	240.992,230.717 271.008,230.717 271.008,274.139 "/>
<polygon style="fill:#E47500;" points="288.326,274.139 288.326,304.154 256,304.154 256,230.717 271.008,230.717 271.008,274.139 
	"/>
<g>
	<rect x="144.203" style="fill:#FFB74D;" width="223.594" height="30.015"/>
	<rect x="88.915" y="215.9" style="fill:#FFB74D;" width="334.17" height="30.015"/>
</g>
<g>
	<rect x="256" style="fill:#FF9800;" width="111.797" height="30.015"/>
	<rect x="256" y="215.9" style="fill:#FF9800;" width="167.085" height="30.015"/>
</g>
<g>
</g>
<g>
</g>
<g>
</g>
<g>
</g>
<g>
</g>
<g>
</g>
<g>
</g>
<g>
</g>
<g>
</g>
<g>
</g>
<g>
</g>
<g>
</g>
<g>
</g>
<g>
</g>
<g>
</g>
</svg>
