<?xml version="1.0" encoding="iso-8859-1"?>
<!-- Generator: Adobe Illustrator 19.0.0, SVG Export Plug-In . SVG Version: 6.00 Build 0)  -->
<svg version="1.1" id="Capa_1" xmlns="http://www.w3.org/2000/svg" xmlns:xlink="http://www.w3.org/1999/xlink" x="0px" y="0px"
	 viewBox="0 0 490.205 490.205" style="enable-background:new 0 0 490.205 490.205;" xml:space="preserve">
<g>
	<g>
		<path d="M487.885,442.495c-0.007-0.008-0.015-0.015-0.022-0.022l-62.224-62.232l5.656-5.656c3.123-3.124,3.123-8.188,0-11.312
			l-16.968-16.968l28.264-28.264c3.123-3.124,3.123-8.188,0-11.312l-50.92-50.912c-3.124-3.123-8.188-3.123-11.312,0l-12.552,12.552
			l-22.928-13.752c-3.148-1.891-7.179-1.396-9.776,1.2l-5.656,5.656l-16.968-16.968l-67.88-67.888
			c-3.122-3.126-8.188-3.129-11.314-0.006c-0.002,0.002-0.004,0.004-0.006,0.006l-5.656,5.656L52.287,6.92
			c-9.498-9.069-24.447-9.069-33.944,0L7.031,18.224c-9.373,9.372-9.375,24.568-0.003,33.941c0.001,0.001,0.002,0.002,0.003,0.003
			l175.36,175.36l-5.656,5.656c-3.126,3.122-3.129,8.188-0.006,11.314c0.002,0.002,0.004,0.004,0.006,0.006l67.888,67.88
			l16.968,16.968l-5.656,5.656c-2.599,2.595-3.097,6.626-1.208,9.776l13.76,22.928l-12.552,12.552
			c-3.123,3.124-3.123,8.188,0,11.312l50.912,50.896c3.124,3.123,8.188,3.123,11.312,0l28.28-28.28l16.952,16.984
			c3.124,3.123,8.188,3.123,11.312,0l5.656-5.656l62.232,62.224c3.124,3.123,8.188,3.123,11.312,0l33.936-33.936
			C490.976,450.697,490.997,445.632,487.885,442.495z M18.343,40.872c-3.126-3.122-3.129-8.188-0.006-11.314
			c0.002-0.002,0.004-0.004,0.006-0.006l11.312-11.328c3.124-3.123,8.188-3.123,11.312,0l175.368,175.368l-22.632,22.624
			L18.343,40.872z M216.335,250.192l39.6,39.592l-5.656,5.664l-56.576-56.576l45.256-45.288l56.576,56.576l-5.664,5.656
			l-39.592-39.6c-3.124-3.126-8.19-3.128-11.316-0.004c-3.126,3.124-3.128,8.19-0.004,11.316l39.6,39.6l-11.312,11.344l-39.6-39.6
			c-3.126-3.124-8.192-3.122-11.316,0.004S213.209,247.068,216.335,250.192z M261.591,306.728l45.256-45.256l11.312,11.312
			l-45.256,45.256L261.591,306.728z M342.023,271.544l14.168,8.528l-76,76l-8.488-14.144L342.023,271.544z M312.503,425.52
			l-39.6-39.6l11.288-11.304l90.536-90.544l11.312-11.312l39.6,39.6L312.503,425.52z M369.071,414.208l-11.28-11.312l45.224-45.224
			l11.312,11.312L369.071,414.208z M448.271,470.776l-56.576-56.568l22.632-22.624l56.568,56.568L448.271,470.776z"/>
	</g>
</g>
<g>
	<g>
		<path d="M408.663,306.728l-16.968-16.976c-3.124-3.123-8.188-3.123-11.312,0l-90.504,90.512c-3.123,3.124-3.123,8.188,0,11.312
			l16.968,16.968c3.124,3.123,8.188,3.123,11.312,0l90.504-90.504C411.786,314.916,411.786,309.852,408.663,306.728z
			 M312.503,391.576l-5.656-5.656l79.2-79.2l5.656,5.656L312.503,391.576z"/>
	</g>
</g>
<g>
</g>
<g>
</g>
<g>
</g>
<g>
</g>
<g>
</g>
<g>
</g>
<g>
</g>
<g>
</g>
<g>
</g>
<g>
</g>
<g>
</g>
<g>
</g>
<g>
</g>
<g>
</g>
<g>
</g>
</svg>
