<svg id="Layer_5" enable-background="new 0 0 64 64" height="512" viewBox="0 0 64 64" width="512" xmlns="http://www.w3.org/2000/svg"><path d="m50.291 46.464-12.291-3.235v-.906c.585-.463.999-1.127 1.106-1.896.745-5.307 5.238-6.983 7.136-7.458l.758-.189v-1.78h1c1.654 0 3-1.346 3-3v-7c0-1.654-1.346-3-3-3h-1v-2c0-7.934-6.195-14.431-14-14.949v-.051h-1c-9.374 0-17 7.626-17 17v8c0 2.43 1.744 4.456 4.046 4.904.32 4.619 3.053 8.577 6.954 10.617v1.709l-12.291 3.234c-3.95 1.039-6.709 4.618-6.709 8.703v7.833h50v-7.833c0-4.085-2.759-7.664-6.709-8.703zm4.709 8.703v.136c-.939.449-1.962.697-3 .697-3.859 0-7-3.141-7-7 0-.609.086-1.21.243-1.797l4.538 1.194c3.073.809 5.219 3.593 5.219 6.77zm-11.689-8.472c-.201.752-.311 1.523-.311 2.305 0 3.114 1.59 5.862 4 7.478v4.522h-5v-3c0-2.757-2.243-5-5-5h-4v-4h2c1.654 0 3-1.346 3-3v-.703zm-7.311-1.924v1.229c0 .552-.448 1-1 1h-2v-4h3v1zm-3 14.229h3v2h-3zm0-2v-2h4c1.654 0 3 1.346 3 3v3h-2v-4zm15-37c.552 0 1 .448 1 1v7c0 .552-.448 1-1 1h-1v-9zm-3-4v15.24c-4.411 1.357-7.265 4.568-7.874 8.91-.068.485-.521.85-1.052.85h-.074-3v-24h1.149c3.279 0 6.158-2.327 6.845-5.533l.844-3.94c1.965 2.278 3.162 5.236 3.162 8.473zm-4.855-10.117-1.106 5.164c-.491 2.291-2.547 3.953-4.89 3.953h-1.149v-2h2v-2h-2v-2h4v-2h-4v-3.949c2.693.206 5.159 1.23 7.145 2.832zm-23.145 20.117c0-1.312.852-2.417 2.027-2.824-.008.143-.027.285-.027.429v5.21c-1.161-.413-2-1.513-2-2.815zm2.442-4.944c-.912.103-1.746.442-2.442.969v-4.025c0-7.935 6.193-14.45 14-14.967v17.918c-2.579-.23-4.975-1.34-6.828-3.193l-1.044-1.045-.683.455c-1.422.948-2.456 2.322-3.003 3.888zm1.558 8.944v-6.395c0-1.65.704-3.199 1.915-4.279 2.208 2.138 5.044 3.397 8.085 3.626v12.906c-1.721-.447-3-1.999-3-3.858h-2c0 2.967 2.167 5.431 5 5.91v3.04c-5.598-.508-10-5.222-10-10.95zm10 12.949v2.969l-3-2.4v-1.155c.956.311 1.962.507 3 .586zm-4.233 2.146 4.233 3.386v.05l-4.427 3.69-1.712-6.624zm-17.767 10.072c0-3.177 2.146-5.961 5.219-6.77l8.709-2.292 2.499 9.674 5.573-4.643v9.864h-13.674l1.636-5.726-1.924-.549-1.793 6.275h-6.245zm40 5.833v-3.525c.94.334 1.947.525 3 .525 1.025 0 2.037-.195 3-.539v3.539z"/><path d="m29 26c0-1.654-1.346-3-3-3s-3 1.346-3 3 1.346 3 3 3 3-1.346 3-3zm-4 0c0-.552.448-1 1-1s1 .448 1 1-.448 1-1 1-1-.448-1-1z"/><path d="m40.562 22h-3.123c-.663 0-1.306.295-1.766.811-.9 1.015-.9 2.604 0 3.619l1.562 1.76c.457.514 1.101.81 1.765.81s1.308-.296 1.765-.811l1.562-1.76c.9-1.015.9-2.604 0-3.619l-.001-.001c-.459-.514-1.101-.809-1.764-.809zm.269 3.102-1.562 1.76c-.16.182-.377.182-.537 0l-1.562-1.76c-.224-.252-.224-.711-.001-.962.08-.09.176-.14.271-.14h3.123c.095 0 .19.05.271.14.221.252.221.711-.003.962z"/></svg>