<svg id="Layer_5" enable-background="new 0 0 64 64" height="512" viewBox="0 0 64 64" width="512" xmlns="http://www.w3.org/2000/svg"><path d="m40 46c0-1.984-1.789-3.762-5.02-5.045-1.973-4.67-6.6-7.955-11.98-7.955s-10.007 3.285-11.981 7.955c-3.23 1.283-5.019 3.061-5.019 5.045 0 2.178 2.021 3.869 5.02 5.047 1.974 4.669 6.601 7.953 11.98 7.953s10.006-3.284 11.98-7.953c2.999-1.178 5.02-2.869 5.02-5.047zm-7.993-6.295c-.305.184-.647.295-1.007.295-1.103 0-2-.897-2-2 0-.36.111-.702.296-1.007 1.054.739 1.972 1.657 2.711 2.712zm-4.439-3.699c-.355.602-.568 1.28-.568 1.994 0 2.206 1.794 4 4 4 .714 0 1.391-.213 1.994-.568.64 1.394 1.006 2.937 1.006 4.568 0 1.217-.207 2.385-.574 3.481-2.438.828-5.702 1.41-9.428 1.5-.011-1.645-1.35-2.981-2.998-2.981-1.547 0-2.809 1.181-2.968 2.687-2.084-.266-3.932-.688-5.458-1.206-.367-1.096-.574-2.264-.574-3.481 0-2.21.661-4.266 1.787-5.992.548.606 1.331.992 2.213.992 1.654 0 3-1.346 3-3 0-.732-.262-1.406-.703-1.929 1.428-.679 3.019-1.071 4.703-1.071 1.631 0 3.174.366 4.568 1.006zm-7.546 14.884c.058-.498.466-.89.978-.89.544 0 .985.438.996.981-.672-.017-1.333-.044-1.974-.091zm-3.518-13.747c.3.173.496.494.496.857 0 .552-.449 1-1 1-.416 0-.765-.256-.914-.622.436-.452.911-.862 1.418-1.235zm-8.504 8.857c0-.824.818-1.704 2.245-2.49-.157.807-.245 1.638-.245 2.49 0 .85.088 1.68.244 2.485-1.424-.777-2.244-1.648-2.244-2.485zm15 11c-3.888 0-7.303-2.033-9.26-5.086 2.807.714 6.07 1.086 9.26 1.086s6.453-.372 9.26-1.086c-1.957 3.053-5.372 5.086-9.26 5.086zm12.756-8.515c.156-.805.244-1.635.244-2.485 0-.852-.088-1.684-.245-2.49 1.427.785 2.245 1.666 2.245 2.49 0 .837-.82 1.708-2.244 2.485z"/><path d="m53 42h-2c0 2.757-2.243 5-5 5v2c2.757 0 5 2.243 5 5h2c0-2.757 2.243-5 5-5v-2c-2.757 0-5-2.243-5-5zm-1 8.413c-.594-.99-1.423-1.819-2.413-2.413.99-.594 1.819-1.423 2.413-2.413.594.99 1.423 1.819 2.413 2.413-.99.594-1.819 1.423-2.413 2.413z"/><path d="m4 27c2.757 0 5 2.243 5 5h2c0-2.757 2.243-5 5-5v-2c-2.757 0-5-2.243-5-5h-2c0 2.757-2.243 5-5 5zm6-3.413c.594.99 1.423 1.819 2.413 2.413-.99.594-1.819 1.423-2.413 2.413-.594-.99-1.423-1.819-2.413-2.413.99-.594 1.819-1.423 2.413-2.413z"/><path d="m6 57h2v2h-2z"/><path d="m6 61h2v2h-2z"/><path d="m4 59h2v2h-2z"/><path d="m8 59h2v2h-2z"/><path d="m3 3h2v2h-2z"/><path d="m3 7h2v2h-2z"/><path d="m1 5h2v2h-2z"/><path d="m5 5h2v2h-2z"/><path d="m18 12h2v2h-2z"/><path d="m18 16h2v2h-2z"/><path d="m16 14h2v2h-2z"/><path d="m20 14h2v2h-2z"/><path d="m23 1h2v2h-2z"/><path d="m23 5h2v2h-2z"/><path d="m21 3h2v2h-2z"/><path d="m25 3h2v2h-2z"/><path d="m42 51h2v2h-2z"/><path d="m42 55h2v2h-2z"/><path d="m40 53h2v2h-2z"/><path d="m44 53h2v2h-2z"/><path d="m59 36h2v2h-2z"/><path d="m59 40h2v2h-2z"/><path d="m57 38h2v2h-2z"/><path d="m61 38h2v2h-2z"/><path d="m36 13h2v2h-2z"/><path d="m27.035 18.212c-.018.261-.035.522-.035.788 0 9.925 8.075 18 18 18s18-8.075 18-18-8.075-18-18-18c-9.249 0-16.883 7.013-17.882 16h-.012l-.007.127c-.015.146-.014.296-.026.443zm1.965.788h10c.551 0 1 .449 1 1s-.449 1-1 1h-3c-1.654 0-3 1.346-3 3s1.346 3 3 3h7c.551 0 1 .449 1 1s-.449 1-1 1h-2c-1.654 0-3 1.346-3 3v1.365c-5.319-2.603-9-8.055-9-14.365zm.527-4h4.473v-2h-3.822c2.379-5.856 8.122-10 14.822-10 2.802 0 5.436.729 7.729 2h-8.729c-1.654 0-3 1.346-3 3s1.346 3 3 3h6c.551 0 1 .449 1 1s-.449 1-1 1h-10v2h10c1.654 0 3-1.346 3-3s-1.346-3-3-3h-6c-.551 0-1-.449-1-1s.449-1 1-1h11.547c3.335 2.934 5.453 7.22 5.453 12 0 2.122-.424 4.145-1.178 6h-4.822c-.551 0-1-.449-1-1s.449-1 1-1h1c1.654 0 3-1.346 3-3s-1.346-3-3-3h-5c-1.654 0-3 1.346-3 3v4h2v-4c0-.551.449-1 1-1h5c.551 0 1 .449 1 1s-.449 1-1 1h-1c-1.654 0-3 1.346-3 3s1.346 3 3 3h3.835c-1.952 3.362-5.085 5.951-8.835 7.189v-4.189h-2v4.708c-.973.186-1.974.292-3 .292-1.747 0-3.425-.291-5-.811v-2.189c0-.551.449-1 1-1h2c1.654 0 3-1.346 3-3s-1.346-3-3-3h-7c-.551 0-1-.449-1-1s.449-1 1-1h3c1.654 0 3-1.346 3-3s-1.346-3-3-3h-9.861c.085-.682.219-1.347.388-2z"/><path d="m48 26h2v2h-2z"/></svg>